<svg width="633" height="600" viewBox="0 0 633 600" fill="none" xmlns="http://www.w3.org/2000/svg">
<path d="M200.562 483.543C200.577 483.515 205.925 474.258 216.062 456.703C226.198 439.148 240.769 413.907 258.315 383.522C275.873 353.112 295.79 318.614 316.066 283.497C336.339 248.381 356.257 213.885 373.815 183.472C391.358 153.085 405.928 127.844 416.065 110.289C426.202 92.7302 431.546 83.4726 431.561 83.4454" stroke="#2A3E51" stroke-width="27.9998" stroke-linecap="round"/>
<path d="M360.02 510.509C389.93 504.786 417.281 488.676 439.329 463.797C461.372 438.922 477.334 406.148 485.608 368.779C493.882 331.409 494.175 290.757 486.457 250.908C478.742 211.061 463.29 173.42 441.649 141.765C420.012 110.117 392.954 85.5738 363.191 70.604C333.43 55.6317 302.013 50.7643 272.102 56.4834" stroke="#2A3E51" stroke-width="28.0001" stroke-linecap="round"/>
<path d="M534.64 208.059C519.527 164.598 482.008 130.868 430.332 114.284C378.656 97.6973 317.057 99.6233 259.086 119.626C220.719 132.868 185.661 153.45 157.433 179.298C129.203 205.15 108.803 235.357 98.2794 266.886C87.7561 298.418 87.4829 330.161 97.4815 358.92" stroke="#2A3E51" stroke-width="28" stroke-linecap="round"/>
<path d="M93.7397 347.17C99.6225 367.521 113.439 389.717 133.68 411.326C153.926 432.935 179.818 453.133 208.538 469.715C237.26 486.294 267.698 498.622 296.535 505.347C325.37 512.074 351.499 512.945 372.065 507.859" stroke="#2A3E51" stroke-width="5.59996"/>
<path d="M92.6003 223.012C85.3151 250.051 95.9945 284.886 122.646 321.039C149.298 357.195 190.113 392.206 237.498 419.567C284.885 446.923 335.61 464.762 380.246 469.769C424.886 474.773 460.388 466.601 480.162 446.777" stroke="#2A3E51" stroke-width="27.9998"/>
<path d="M151.956 120.206C136.413 135.788 131.338 157.835 137.324 183.748C143.311 209.662 160.108 238.365 185.742 266.482C211.375 294.599 244.779 320.96 282.015 342.459C319.256 363.958 358.783 379.708 395.952 387.85C433.115 395.987 466.371 396.181 491.808 388.41C517.245 380.637 533.796 365.219 539.521 343.975" stroke="#2A3E51" stroke-width="27.9998"/>
<path d="M260.049 59.1173C234.237 65.5002 218.592 80.9057 215.751 102.744C212.908 124.58 223.044 151.513 244.449 179.004C265.853 206.495 297.219 232.866 333.267 253.679C369.313 274.491 407.838 288.473 442.346 293.26C476.858 298.053 505.252 293.366 522.742 279.988C540.234 266.609 545.753 245.359 538.369 219.815" stroke="#2A3E51" stroke-width="27.9998"/>
<path d="M319.176 77.1726C305.336 101.141 333.07 143.063 381.116 170.805C429.167 198.547 479.34 201.603 493.179 177.634C507.019 153.661 479.284 111.74 431.241 83.9988C383.19 56.2604 333.017 53.2005 319.181 77.1754" stroke="#2A3E51" stroke-width="27.9998" stroke-linecap="round"/>
<path d="M115.546 167.723C51.7555 278.209 89.8186 419.604 200.561 483.542C311.301 547.475 452.786 509.739 516.577 399.261C580.367 288.776 542.299 147.377 431.561 83.4421C320.819 19.5038 179.335 57.2376 115.546 167.723" stroke="#2A3E51" stroke-width="27.9998" stroke-linecap="round"/>
</svg>
