<svg width="532" height="404" viewBox="0 0 532 404" fill="none" xmlns="http://www.w3.org/2000/svg">
<path fill-rule="evenodd" clip-rule="evenodd" d="M61.8 0.641113H470.19C488.151 0.641113 504.378 8.41841 515.686 20.7661L313.306 234.996C306.923 241.766 299.732 246.855 291.853 250.25C284.009 253.645 275.357 255.34 265.982 255.34C256.607 255.34 247.955 253.625 240.111 250.25C232.232 246.856 225.056 241.75 218.658 234.996L16.278 20.7661C27.583 8.41811 43.813 0.641113 61.774 0.641113H61.8ZM528.91 43.3791C530.859 49.3596 531.918 55.7421 531.918 62.3631V341.663C531.918 351.96 529.363 361.671 524.844 370.241L380.434 200.561L528.91 43.3791ZM508.648 389.829C498.082 398.298 484.707 403.368 470.21 403.368H61.82C47.32 403.368 33.949 398.294 23.382 389.829L168.902 218.849L200.418 252.212C209.238 261.552 219.219 268.626 230.223 273.364C241.262 278.118 253.239 280.52 266.024 280.52C278.809 280.52 290.786 278.118 301.825 273.364C312.829 268.626 322.809 261.555 331.63 252.212L363.146 218.849L508.666 389.829H508.648ZM7.16798 370.224C2.66408 361.673 0.113281 351.947 0.113281 341.646V62.3461C0.113281 55.725 1.17189 49.3581 3.12109 43.3621L151.601 200.542L7.19109 370.222L7.16798 370.224Z" fill="white"/>
</svg>
