<svg width="64" height="64" viewBox="0 0 64 64" fill="none" xmlns="http://www.w3.org/2000/svg">
<path fill-rule="evenodd" clip-rule="evenodd" d="M57.9997 -0.000976562H5.99984C2.69984 -0.000976562 -0.00146484 2.70022 -0.00146484 6.00032V58.0002C-0.00146484 61.3002 2.69984 64.0014 5.99984 64.0014H57.9997C61.2997 64.0014 64.001 61.3002 64.001 58.0002V6.00022C64.001 2.70022 61.2997 -0.000976562 57.9997 -0.000976562V-0.000976562ZM36.3817 17.3792H43.6964V8.60702H36.3817C30.7489 8.60702 26.1532 13.2015 26.1532 18.8414V23.2257H20.3043V32.0002H26.152V55.3934H34.9254V32.0002H42.2329L43.6963 23.2257H34.9253V18.8414C34.9253 18.0476 35.5951 17.378 36.3817 17.378V17.3791V17.3792Z" fill="white"/>
</svg>
