<svg width="64" height="52" viewBox="0 0 64 52" fill="none" xmlns="http://www.w3.org/2000/svg">
<path fill-rule="evenodd" clip-rule="evenodd" d="M64.0013 6.15138C61.6485 7.20378 59.1138 7.90298 56.467 8.21478C59.1788 6.59078 61.2528 4.01708 62.2426 0.953283C59.7079 2.45208 56.891 3.55178 53.9063 4.13988C51.5063 1.58988 48.0976 0.00488281 44.3215 0.00488281C37.0707 0.00488281 31.2005 5.87848 31.2005 13.1247C31.2005 14.1475 31.3139 15.1479 31.536 16.1129C20.626 15.5601 10.9539 10.3372 4.47902 2.39068C3.31517 4.39551 2.70231 6.67252 2.70262 8.99068C2.70262 13.5404 5.01282 17.5645 8.53732 19.9114C6.38652 19.8476 4.36332 19.2476 2.58682 18.2755V18.4397C2.58682 24.8024 7.10932 30.1115 13.1188 31.3115C12.018 31.6103 10.8558 31.7757 9.65823 31.7757C8.81023 31.7757 7.99282 31.6883 7.18022 31.5407C8.85852 36.7517 13.7035 40.5502 19.4414 40.6612C14.9425 44.1857 9.29212 46.2845 3.13242 46.2845C2.06942 46.2845 1.03362 46.2195 -0.000976562 46.0955C5.82192 49.8314 12.7196 51.9952 20.13 51.9952C44.272 51.9952 57.4852 31.9883 57.4852 14.6412C57.4852 14.0648 57.4722 13.5062 57.4486 12.9416C60.0128 11.1073 62.2356 8.79228 63.9955 6.15718L64.0013 6.15138Z" fill="white"/>
</svg>
