<svg width="504" height="504" viewBox="0 0 504 504" fill="none" xmlns="http://www.w3.org/2000/svg">
<path d="M252 0C113.02 0 0 113.02 0 252C0 390.98 113.02 504 252 504C390.98 504 504 390.98 504 252C504 113.02 390.98 0 252 0ZM252 33.602C372.82 33.602 470.4 131.184 470.4 252.002C470.4 300.092 454.81 344.412 428.576 380.452C406.658 334.612 367.525 298.577 319.556 280.878C349.759 259.542 369.607 224.425 369.607 184.804C369.607 120.054 316.755 67.204 252.007 67.204C187.259 67.204 134.407 120.056 134.407 184.804C134.407 224.425 154.255 259.542 184.458 280.878C136.45 298.566 97.36 334.597 75.438 380.452C49.204 344.413 33.614 300.093 33.614 252.002C33.614 131.182 131.196 33.602 252.014 33.602H252ZM252 100.801C298.59 100.801 336 138.211 336 184.801C336 231.391 298.59 268.801 252 268.801C205.41 268.801 168 231.391 168 184.801C168 138.211 205.41 100.801 252 100.801ZM252 302.401C322.145 302.401 381.43 346.725 404.25 408.801C364.945 446.957 311.242 470.399 252 470.399C192.758 470.399 139.05 446.958 99.75 408.801C122.602 346.785 181.922 302.401 252 302.401Z" fill="white"/>
</svg>
